<mxfile host="app.diagrams.net" modified="2023-12-10T17:58:38.483Z" agent="Mozilla/5.0 (Macintosh; Intel Mac OS X 10_15_7) AppleWebKit/537.36 (KHTML, like Gecko) Chrome/119.0.0.0 Safari/537.36" etag="G8rOjkCWAmGkSlBxZfJ2" version="22.1.7" type="device">
  <diagram name="Page-1" id="16e2658f-23c8-b752-8be9-c03fbebb8bbe">
    <mxGraphModel dx="2607" dy="1391" grid="1" gridSize="10" guides="1" tooltips="1" connect="1" arrows="1" fold="1" page="1" pageScale="1" pageWidth="1100" pageHeight="850" background="none" math="0" shadow="0">
      <root>
        <mxCell id="0" />
        <mxCell id="1" parent="0" />
        <mxCell id="HQ6w1nF9mLyHSZceJTjx-3" value="addOne" style="rounded=0;whiteSpace=wrap;html=1;fontSize=16;" vertex="1" parent="1">
          <mxGeometry x="440" y="90" width="120" height="60" as="geometry" />
        </mxCell>
        <mxCell id="HQ6w1nF9mLyHSZceJTjx-4" value="" style="verticalLabelPosition=bottom;shadow=0;dashed=0;align=center;html=1;verticalAlign=top;shape=mxgraph.electrical.logic_gates.inverter_2;rounded=0;" vertex="1" parent="1">
          <mxGeometry x="260" y="90" width="100" height="60" as="geometry" />
        </mxCell>
        <mxCell id="HQ6w1nF9mLyHSZceJTjx-5" value="" style="endArrow=none;html=1;rounded=0;exitX=1;exitY=0.5;exitDx=0;exitDy=0;exitPerimeter=0;entryX=0;entryY=0.5;entryDx=0;entryDy=0;" edge="1" parent="1" source="HQ6w1nF9mLyHSZceJTjx-4" target="HQ6w1nF9mLyHSZceJTjx-3">
          <mxGeometry width="50" height="50" relative="1" as="geometry">
            <mxPoint x="390" y="120" as="sourcePoint" />
            <mxPoint x="730" y="230" as="targetPoint" />
          </mxGeometry>
        </mxCell>
        <mxCell id="HQ6w1nF9mLyHSZceJTjx-6" value="" style="verticalLabelPosition=bottom;shadow=0;dashed=0;align=center;html=1;verticalAlign=top;shape=mxgraph.electrical.logic_gates.d_type_flip-flop;fontSize=12;rounded=0;" vertex="1" parent="1">
          <mxGeometry x="647" y="90" width="160" height="120" as="geometry" />
        </mxCell>
        <mxCell id="HQ6w1nF9mLyHSZceJTjx-7" value="" style="endArrow=none;html=1;rounded=0;exitX=0;exitY=0.25;exitDx=0;exitDy=0;exitPerimeter=0;entryX=1;entryY=0.5;entryDx=0;entryDy=0;" edge="1" parent="1" source="HQ6w1nF9mLyHSZceJTjx-6" target="HQ6w1nF9mLyHSZceJTjx-3">
          <mxGeometry width="50" height="50" relative="1" as="geometry">
            <mxPoint x="440" y="130" as="sourcePoint" />
            <mxPoint x="370" y="320" as="targetPoint" />
          </mxGeometry>
        </mxCell>
        <mxCell id="HQ6w1nF9mLyHSZceJTjx-8" value="" style="verticalLabelPosition=bottom;shadow=0;dashed=0;align=center;html=1;verticalAlign=top;shape=mxgraph.electrical.logic_gates.d_type_flip-flop;fontSize=12;rounded=0;" vertex="1" parent="1">
          <mxGeometry x="647" y="230" width="160" height="120" as="geometry" />
        </mxCell>
        <mxCell id="HQ6w1nF9mLyHSZceJTjx-9" value="" style="endArrow=none;html=1;rounded=0;entryX=0;entryY=0.25;entryDx=0;entryDy=0;entryPerimeter=0;exitX=0;exitY=0.5;exitDx=0;exitDy=0;exitPerimeter=0;" edge="1" parent="1" source="HQ6w1nF9mLyHSZceJTjx-4" target="HQ6w1nF9mLyHSZceJTjx-8">
          <mxGeometry width="50" height="50" relative="1" as="geometry">
            <mxPoint x="250" y="280" as="sourcePoint" />
            <mxPoint x="410" y="130" as="targetPoint" />
            <Array as="points">
              <mxPoint x="260" y="260" />
            </Array>
          </mxGeometry>
        </mxCell>
        <mxCell id="HQ6w1nF9mLyHSZceJTjx-10" value="" style="endArrow=none;html=1;rounded=0;exitX=0;exitY=0.5;exitDx=0;exitDy=0;exitPerimeter=0;" edge="1" parent="1" source="HQ6w1nF9mLyHSZceJTjx-4">
          <mxGeometry width="50" height="50" relative="1" as="geometry">
            <mxPoint x="40" y="140" as="sourcePoint" />
            <mxPoint x="200" y="120" as="targetPoint" />
          </mxGeometry>
        </mxCell>
        <mxCell id="HQ6w1nF9mLyHSZceJTjx-11" value="i_x[7:0]" style="text;strokeColor=none;align=center;fillColor=none;html=1;verticalAlign=middle;whiteSpace=wrap;rounded=0;fontSize=17;" vertex="1" parent="1">
          <mxGeometry x="130" y="105" width="60" height="30" as="geometry" />
        </mxCell>
        <mxCell id="HQ6w1nF9mLyHSZceJTjx-15" value="clk" style="text;strokeColor=none;align=center;fillColor=none;html=1;verticalAlign=middle;whiteSpace=wrap;rounded=0;fontSize=17;" vertex="1" parent="1">
          <mxGeometry x="590" y="304" width="60" height="30" as="geometry" />
        </mxCell>
        <mxCell id="HQ6w1nF9mLyHSZceJTjx-16" value="nIn[7:0]" style="text;strokeColor=none;align=center;fillColor=none;html=1;verticalAlign=middle;whiteSpace=wrap;rounded=0;fontSize=17;" vertex="1" parent="1">
          <mxGeometry x="360" y="90" width="60" height="30" as="geometry" />
        </mxCell>
        <mxCell id="HQ6w1nF9mLyHSZceJTjx-18" value="nx[7:0]" style="text;strokeColor=none;align=center;fillColor=none;html=1;verticalAlign=middle;whiteSpace=wrap;rounded=0;fontSize=17;" vertex="1" parent="1">
          <mxGeometry x="587" y="90" width="60" height="30" as="geometry" />
        </mxCell>
        <mxCell id="HQ6w1nF9mLyHSZceJTjx-20" value="d01_nx[7:0]" style="text;strokeColor=none;align=center;fillColor=none;html=1;verticalAlign=middle;whiteSpace=wrap;rounded=0;fontSize=17;" vertex="1" parent="1">
          <mxGeometry x="830" y="105" width="60" height="30" as="geometry" />
        </mxCell>
        <mxCell id="HQ6w1nF9mLyHSZceJTjx-21" value="d01_x[7:0]" style="text;strokeColor=none;align=center;fillColor=none;html=1;verticalAlign=middle;whiteSpace=wrap;rounded=0;fontSize=17;" vertex="1" parent="1">
          <mxGeometry x="830" y="244" width="60" height="30" as="geometry" />
        </mxCell>
        <mxCell id="HQ6w1nF9mLyHSZceJTjx-23" value="Mux Bus" style="shadow=0;dashed=0;align=center;html=1;strokeWidth=1;shape=mxgraph.electrical.abstract.mux2;whiteSpace=wrap;rounded=0;" vertex="1" parent="1">
          <mxGeometry x="129" y="835" width="80" height="120" as="geometry" />
        </mxCell>
        <mxCell id="HQ6w1nF9mLyHSZceJTjx-24" value="d01_x[7:0]" style="text;strokeColor=none;align=center;fillColor=none;html=1;verticalAlign=middle;whiteSpace=wrap;rounded=0;fontSize=17;" vertex="1" parent="1">
          <mxGeometry x="49" y="847" width="60" height="30" as="geometry" />
        </mxCell>
        <mxCell id="HQ6w1nF9mLyHSZceJTjx-25" value="d01_nx[7:0]" style="text;strokeColor=none;align=center;fillColor=none;html=1;verticalAlign=middle;whiteSpace=wrap;rounded=0;fontSize=17;" vertex="1" parent="1">
          <mxGeometry x="49" y="906" width="60" height="30" as="geometry" />
        </mxCell>
        <mxCell id="HQ6w1nF9mLyHSZceJTjx-33" value="d01_x[7]" style="text;strokeColor=none;align=center;fillColor=none;html=1;verticalAlign=middle;whiteSpace=wrap;rounded=0;fontSize=17;" vertex="1" parent="1">
          <mxGeometry x="139" y="960" width="60" height="30" as="geometry" />
        </mxCell>
        <mxCell id="HQ6w1nF9mLyHSZceJTjx-36" value="abs_x[7:0]" style="text;strokeColor=none;align=center;fillColor=none;html=1;verticalAlign=middle;whiteSpace=wrap;rounded=0;fontSize=17;" vertex="1" parent="1">
          <mxGeometry x="223" y="875" width="60" height="30" as="geometry" />
        </mxCell>
        <mxCell id="HQ6w1nF9mLyHSZceJTjx-38" value="abs_x[7]" style="text;strokeColor=none;align=center;fillColor=none;html=1;verticalAlign=middle;whiteSpace=wrap;rounded=0;fontSize=17;" vertex="1" parent="1">
          <mxGeometry x="799" y="961" width="60" height="30" as="geometry" />
        </mxCell>
        <mxCell id="HQ6w1nF9mLyHSZceJTjx-40" value="abs_x[3:0]" style="text;strokeColor=none;align=center;fillColor=none;html=1;verticalAlign=middle;whiteSpace=wrap;rounded=0;fontSize=17;" vertex="1" parent="1">
          <mxGeometry x="950" y="583" width="60" height="30" as="geometry" />
        </mxCell>
        <mxCell id="HQ6w1nF9mLyHSZceJTjx-41" value="" style="verticalLabelPosition=bottom;shadow=0;dashed=0;align=center;html=1;verticalAlign=top;shape=mxgraph.electrical.logic_gates.logic_gate;operation=and;rounded=0;" vertex="1" parent="1">
          <mxGeometry x="869" y="962" width="100" height="60" as="geometry" />
        </mxCell>
        <mxCell id="HQ6w1nF9mLyHSZceJTjx-44" value="special" style="text;strokeColor=none;align=center;fillColor=none;html=1;verticalAlign=middle;whiteSpace=wrap;rounded=0;fontSize=17;" vertex="1" parent="1">
          <mxGeometry x="959" y="962" width="60" height="29" as="geometry" />
        </mxCell>
        <mxCell id="HQ6w1nF9mLyHSZceJTjx-46" value="" style="verticalLabelPosition=bottom;shadow=0;dashed=0;align=center;html=1;verticalAlign=top;shape=mxgraph.electrical.logic_gates.d_type_flip-flop;fontSize=12;rounded=0;" vertex="1" parent="1">
          <mxGeometry x="647" y="370" width="160" height="120" as="geometry" />
        </mxCell>
        <mxCell id="HQ6w1nF9mLyHSZceJTjx-47" value="i_in_valid" style="text;strokeColor=none;align=center;fillColor=none;html=1;verticalAlign=middle;whiteSpace=wrap;rounded=0;fontSize=17;" vertex="1" parent="1">
          <mxGeometry x="580" y="384" width="60" height="30" as="geometry" />
        </mxCell>
        <mxCell id="HQ6w1nF9mLyHSZceJTjx-51" value="clk" style="text;strokeColor=none;align=center;fillColor=none;html=1;verticalAlign=middle;whiteSpace=wrap;rounded=0;fontSize=17;" vertex="1" parent="1">
          <mxGeometry x="587" y="163" width="60" height="30" as="geometry" />
        </mxCell>
        <mxCell id="HQ6w1nF9mLyHSZceJTjx-52" value="clk" style="text;strokeColor=none;align=center;fillColor=none;html=1;verticalAlign=middle;whiteSpace=wrap;rounded=0;fontSize=17;" vertex="1" parent="1">
          <mxGeometry x="587" y="443" width="60" height="30" as="geometry" />
        </mxCell>
        <mxCell id="HQ6w1nF9mLyHSZceJTjx-53" value="d01_valid" style="text;strokeColor=none;align=center;fillColor=none;html=1;verticalAlign=middle;whiteSpace=wrap;rounded=0;fontSize=17;" vertex="1" parent="1">
          <mxGeometry x="830" y="384" width="60" height="30" as="geometry" />
        </mxCell>
        <mxCell id="HQ6w1nF9mLyHSZceJTjx-54" value="" style="verticalLabelPosition=bottom;shadow=0;dashed=0;align=center;html=1;verticalAlign=top;shape=mxgraph.electrical.logic_gates.inverter_2;rounded=0;" vertex="1" parent="1">
          <mxGeometry x="450" y="860" width="100" height="60" as="geometry" />
        </mxCell>
        <mxCell id="HQ6w1nF9mLyHSZceJTjx-57" value="" style="endArrow=none;html=1;rounded=0;entryX=0.005;entryY=0.206;entryDx=0;entryDy=0;entryPerimeter=0;" edge="1" parent="1" target="HQ6w1nF9mLyHSZceJTjx-61">
          <mxGeometry width="50" height="50" relative="1" as="geometry">
            <mxPoint x="410" y="850" as="sourcePoint" />
            <mxPoint x="740" y="850" as="targetPoint" />
            <Array as="points">
              <mxPoint x="560" y="850" />
            </Array>
          </mxGeometry>
        </mxCell>
        <mxCell id="HQ6w1nF9mLyHSZceJTjx-60" value="abs_x[6:4]" style="text;strokeColor=none;align=center;fillColor=none;html=1;verticalAlign=middle;whiteSpace=wrap;rounded=0;fontSize=17;" vertex="1" parent="1">
          <mxGeometry x="330" y="830" width="60" height="30" as="geometry" />
        </mxCell>
        <mxCell id="HQ6w1nF9mLyHSZceJTjx-61" value="a4bitsSelectorEnhanced" style="rounded=0;whiteSpace=wrap;html=1;fontSize=16;" vertex="1" parent="1">
          <mxGeometry x="750" y="835" width="203" height="75" as="geometry" />
        </mxCell>
        <mxCell id="HQ6w1nF9mLyHSZceJTjx-64" value="" style="endArrow=none;html=1;rounded=0;exitX=0.002;exitY=0.729;exitDx=0;exitDy=0;entryX=1;entryY=0.5;entryDx=0;entryDy=0;entryPerimeter=0;exitPerimeter=0;" edge="1" parent="1" source="HQ6w1nF9mLyHSZceJTjx-61" target="HQ6w1nF9mLyHSZceJTjx-54">
          <mxGeometry width="50" height="50" relative="1" as="geometry">
            <mxPoint x="627" y="874.86" as="sourcePoint" />
            <mxPoint x="549" y="874.86" as="targetPoint" />
          </mxGeometry>
        </mxCell>
        <mxCell id="HQ6w1nF9mLyHSZceJTjx-65" value="{CTRL0,CTRL1,CTRL2}" style="text;strokeColor=none;align=center;fillColor=none;html=1;verticalAlign=middle;whiteSpace=wrap;rounded=0;fontSize=17;" vertex="1" parent="1">
          <mxGeometry x="610" y="820" width="60" height="30" as="geometry" />
        </mxCell>
        <mxCell id="HQ6w1nF9mLyHSZceJTjx-66" value="{nCTRL0,nCTRL1,nCTRL2}" style="text;strokeColor=none;align=center;fillColor=none;html=1;verticalAlign=middle;whiteSpace=wrap;rounded=0;fontSize=17;" vertex="1" parent="1">
          <mxGeometry x="610" y="860" width="60" height="30" as="geometry" />
        </mxCell>
        <mxCell id="HQ6w1nF9mLyHSZceJTjx-67" value="" style="verticalLabelPosition=bottom;shadow=0;dashed=0;align=center;html=1;verticalAlign=top;shape=mxgraph.electrical.logic_gates.d_type_flip-flop;fontSize=12;rounded=0;" vertex="1" parent="1">
          <mxGeometry x="1019" y="832" width="160" height="120" as="geometry" />
        </mxCell>
        <mxCell id="HQ6w1nF9mLyHSZceJTjx-69" value="" style="endArrow=none;html=1;rounded=0;exitX=0;exitY=0.25;exitDx=0;exitDy=0;entryX=1;entryY=0.5;entryDx=0;entryDy=0;entryPerimeter=0;exitPerimeter=0;" edge="1" parent="1" source="HQ6w1nF9mLyHSZceJTjx-67">
          <mxGeometry width="50" height="50" relative="1" as="geometry">
            <mxPoint x="1153" y="861.76" as="sourcePoint" />
            <mxPoint x="953" y="861.76" as="targetPoint" />
          </mxGeometry>
        </mxCell>
        <mxCell id="HQ6w1nF9mLyHSZceJTjx-70" value="aValue[3:0]" style="text;strokeColor=none;align=center;fillColor=none;html=1;verticalAlign=middle;whiteSpace=wrap;rounded=0;fontSize=17;" vertex="1" parent="1">
          <mxGeometry x="970" y="832" width="60" height="30" as="geometry" />
        </mxCell>
        <mxCell id="HQ6w1nF9mLyHSZceJTjx-71" value="clk" style="text;strokeColor=none;align=center;fillColor=none;html=1;verticalAlign=middle;whiteSpace=wrap;rounded=0;fontSize=17;" vertex="1" parent="1">
          <mxGeometry x="970" y="906" width="60" height="30" as="geometry" />
        </mxCell>
        <mxCell id="HQ6w1nF9mLyHSZceJTjx-72" value="" style="verticalLabelPosition=bottom;shadow=0;dashed=0;align=center;html=1;verticalAlign=top;shape=mxgraph.electrical.logic_gates.d_type_flip-flop;fontSize=12;rounded=0;" vertex="1" parent="1">
          <mxGeometry x="1019" y="570" width="160" height="120" as="geometry" />
        </mxCell>
        <mxCell id="HQ6w1nF9mLyHSZceJTjx-73" value="clk" style="text;strokeColor=none;align=center;fillColor=none;html=1;verticalAlign=middle;whiteSpace=wrap;rounded=0;fontSize=17;" vertex="1" parent="1">
          <mxGeometry x="970" y="775" width="60" height="30" as="geometry" />
        </mxCell>
        <mxCell id="HQ6w1nF9mLyHSZceJTjx-74" value="" style="verticalLabelPosition=bottom;shadow=0;dashed=0;align=center;html=1;verticalAlign=top;shape=mxgraph.electrical.logic_gates.d_type_flip-flop;fontSize=12;rounded=0;" vertex="1" parent="1">
          <mxGeometry x="1019" y="700" width="160" height="120" as="geometry" />
        </mxCell>
        <mxCell id="HQ6w1nF9mLyHSZceJTjx-75" value="" style="endArrow=none;html=1;rounded=0;entryX=0;entryY=0.25;entryDx=0;entryDy=0;entryPerimeter=0;" edge="1" parent="1" target="HQ6w1nF9mLyHSZceJTjx-74">
          <mxGeometry width="50" height="50" relative="1" as="geometry">
            <mxPoint x="740" y="850" as="sourcePoint" />
            <mxPoint x="1029" y="610" as="targetPoint" />
            <Array as="points">
              <mxPoint x="740" y="730" />
            </Array>
          </mxGeometry>
        </mxCell>
        <mxCell id="HQ6w1nF9mLyHSZceJTjx-76" value="clk" style="text;strokeColor=none;align=center;fillColor=none;html=1;verticalAlign=middle;whiteSpace=wrap;rounded=0;fontSize=17;" vertex="1" parent="1">
          <mxGeometry x="969" y="643" width="60" height="30" as="geometry" />
        </mxCell>
        <mxCell id="HQ6w1nF9mLyHSZceJTjx-77" value="" style="verticalLabelPosition=bottom;shadow=0;dashed=0;align=center;html=1;verticalAlign=top;shape=mxgraph.electrical.logic_gates.d_type_flip-flop;fontSize=12;rounded=0;" vertex="1" parent="1">
          <mxGeometry x="1019" y="961" width="160" height="120" as="geometry" />
        </mxCell>
        <mxCell id="HQ6w1nF9mLyHSZceJTjx-78" value="" style="endArrow=none;html=1;rounded=0;entryX=1;entryY=0.5;entryDx=0;entryDy=0;entryPerimeter=0;exitX=0;exitY=0.25;exitDx=0;exitDy=0;exitPerimeter=0;" edge="1" parent="1" source="HQ6w1nF9mLyHSZceJTjx-77" target="HQ6w1nF9mLyHSZceJTjx-41">
          <mxGeometry width="50" height="50" relative="1" as="geometry">
            <mxPoint x="1000" y="991" as="sourcePoint" />
            <mxPoint x="690" y="1006" as="targetPoint" />
          </mxGeometry>
        </mxCell>
        <mxCell id="HQ6w1nF9mLyHSZceJTjx-79" value="clk" style="text;strokeColor=none;align=center;fillColor=none;html=1;verticalAlign=middle;whiteSpace=wrap;rounded=0;fontSize=17;" vertex="1" parent="1">
          <mxGeometry x="969" y="1036" width="60" height="30" as="geometry" />
        </mxCell>
        <mxCell id="HQ6w1nF9mLyHSZceJTjx-80" value="" style="verticalLabelPosition=bottom;shadow=0;dashed=0;align=center;html=1;verticalAlign=top;shape=mxgraph.electrical.logic_gates.d_type_flip-flop;fontSize=12;rounded=0;" vertex="1" parent="1">
          <mxGeometry x="1019" y="1096" width="160" height="120" as="geometry" />
        </mxCell>
        <mxCell id="HQ6w1nF9mLyHSZceJTjx-81" value="clk" style="text;strokeColor=none;align=center;fillColor=none;html=1;verticalAlign=middle;whiteSpace=wrap;rounded=0;fontSize=17;" vertex="1" parent="1">
          <mxGeometry x="970" y="1171" width="60" height="30" as="geometry" />
        </mxCell>
        <mxCell id="HQ6w1nF9mLyHSZceJTjx-86" value="" style="verticalLabelPosition=bottom;shadow=0;dashed=0;align=center;html=1;verticalAlign=top;shape=mxgraph.electrical.logic_gates.d_type_flip-flop;fontSize=12;rounded=0;" vertex="1" parent="1">
          <mxGeometry x="1019" y="1226" width="160" height="120" as="geometry" />
        </mxCell>
        <mxCell id="HQ6w1nF9mLyHSZceJTjx-87" value="d01_valid" style="text;strokeColor=none;align=center;fillColor=none;html=1;verticalAlign=middle;whiteSpace=wrap;rounded=0;fontSize=17;" vertex="1" parent="1">
          <mxGeometry x="953" y="1240" width="60" height="30" as="geometry" />
        </mxCell>
        <mxCell id="HQ6w1nF9mLyHSZceJTjx-88" value="clk" style="text;strokeColor=none;align=center;fillColor=none;html=1;verticalAlign=middle;whiteSpace=wrap;rounded=0;fontSize=17;" vertex="1" parent="1">
          <mxGeometry x="969" y="1299" width="60" height="30" as="geometry" />
        </mxCell>
        <mxCell id="HQ6w1nF9mLyHSZceJTjx-89" value="d12_valid" style="text;strokeColor=none;align=center;fillColor=none;html=1;verticalAlign=middle;whiteSpace=wrap;rounded=0;fontSize=17;" vertex="1" parent="1">
          <mxGeometry x="1190" y="1240" width="60" height="30" as="geometry" />
        </mxCell>
        <mxCell id="HQ6w1nF9mLyHSZceJTjx-91" value="{d12_CTRL0,d12_CTRL1,d12_CTRL2}" style="text;strokeColor=none;align=center;fillColor=none;html=1;verticalAlign=middle;whiteSpace=wrap;rounded=0;fontSize=17;" vertex="1" parent="1">
          <mxGeometry x="1190" y="714" width="290" height="30" as="geometry" />
        </mxCell>
        <mxCell id="HQ6w1nF9mLyHSZceJTjx-92" value="d12_sign" style="text;strokeColor=none;align=center;fillColor=none;html=1;verticalAlign=middle;whiteSpace=wrap;rounded=0;fontSize=17;" vertex="1" parent="1">
          <mxGeometry x="1190" y="1110" width="60" height="30" as="geometry" />
        </mxCell>
        <mxCell id="HQ6w1nF9mLyHSZceJTjx-93" value="d12_special" style="text;strokeColor=none;align=center;fillColor=none;html=1;verticalAlign=middle;whiteSpace=wrap;rounded=0;fontSize=17;" vertex="1" parent="1">
          <mxGeometry x="1200" y="976" width="60" height="30" as="geometry" />
        </mxCell>
        <mxCell id="HQ6w1nF9mLyHSZceJTjx-94" value="d12_aValue[3:0]" style="text;strokeColor=none;align=center;fillColor=none;html=1;verticalAlign=middle;whiteSpace=wrap;rounded=0;fontSize=17;" vertex="1" parent="1">
          <mxGeometry x="1215" y="847" width="60" height="30" as="geometry" />
        </mxCell>
        <mxCell id="HQ6w1nF9mLyHSZceJTjx-95" value="d12_abs_x[3:0]" style="text;strokeColor=none;align=center;fillColor=none;html=1;verticalAlign=middle;whiteSpace=wrap;rounded=0;fontSize=17;" vertex="1" parent="1">
          <mxGeometry x="1214" y="583" width="60" height="30" as="geometry" />
        </mxCell>
        <mxCell id="HQ6w1nF9mLyHSZceJTjx-100" value="" style="verticalLabelPosition=bottom;shadow=0;dashed=0;align=center;html=1;verticalAlign=top;shape=mxgraph.electrical.logic_gates.d_type_flip-flop;fontSize=12;rounded=0;" vertex="1" parent="1">
          <mxGeometry x="569" y="2083" width="160" height="120" as="geometry" />
        </mxCell>
        <mxCell id="HQ6w1nF9mLyHSZceJTjx-101" value="d12_valid" style="text;strokeColor=none;align=center;fillColor=none;html=1;verticalAlign=middle;whiteSpace=wrap;rounded=0;fontSize=17;" vertex="1" parent="1">
          <mxGeometry x="500" y="2097" width="60" height="30" as="geometry" />
        </mxCell>
        <mxCell id="HQ6w1nF9mLyHSZceJTjx-102" value="clk" style="text;strokeColor=none;align=center;fillColor=none;html=1;verticalAlign=middle;whiteSpace=wrap;rounded=0;fontSize=17;" vertex="1" parent="1">
          <mxGeometry x="519" y="2156" width="60" height="30" as="geometry" />
        </mxCell>
        <mxCell id="HQ6w1nF9mLyHSZceJTjx-103" value="d23_valid" style="text;strokeColor=none;align=center;fillColor=none;html=1;verticalAlign=middle;whiteSpace=wrap;rounded=0;fontSize=17;" vertex="1" parent="1">
          <mxGeometry x="740" y="2097" width="60" height="30" as="geometry" />
        </mxCell>
        <mxCell id="HQ6w1nF9mLyHSZceJTjx-106" value="" style="verticalLabelPosition=bottom;shadow=0;dashed=0;align=center;html=1;verticalAlign=top;shape=mxgraph.electrical.logic_gates.d_type_flip-flop;fontSize=12;rounded=0;" vertex="1" parent="1">
          <mxGeometry x="569" y="1958" width="160" height="120" as="geometry" />
        </mxCell>
        <mxCell id="HQ6w1nF9mLyHSZceJTjx-107" value="d12_sign" style="text;strokeColor=none;align=center;fillColor=none;html=1;verticalAlign=middle;whiteSpace=wrap;rounded=0;fontSize=17;" vertex="1" parent="1">
          <mxGeometry x="500" y="1972" width="60" height="30" as="geometry" />
        </mxCell>
        <mxCell id="HQ6w1nF9mLyHSZceJTjx-108" value="clk" style="text;strokeColor=none;align=center;fillColor=none;html=1;verticalAlign=middle;whiteSpace=wrap;rounded=0;fontSize=17;" vertex="1" parent="1">
          <mxGeometry x="519" y="2031" width="60" height="30" as="geometry" />
        </mxCell>
        <mxCell id="HQ6w1nF9mLyHSZceJTjx-109" value="d23_sign" style="text;strokeColor=none;align=center;fillColor=none;html=1;verticalAlign=middle;whiteSpace=wrap;rounded=0;fontSize=17;" vertex="1" parent="1">
          <mxGeometry x="740" y="1972" width="60" height="30" as="geometry" />
        </mxCell>
        <mxCell id="HQ6w1nF9mLyHSZceJTjx-110" value="" style="verticalLabelPosition=bottom;shadow=0;dashed=0;align=center;html=1;verticalAlign=top;shape=mxgraph.electrical.logic_gates.d_type_flip-flop;fontSize=12;rounded=0;" vertex="1" parent="1">
          <mxGeometry x="569" y="1833" width="160" height="120" as="geometry" />
        </mxCell>
        <mxCell id="HQ6w1nF9mLyHSZceJTjx-111" value="d12_special" style="text;strokeColor=none;align=center;fillColor=none;html=1;verticalAlign=middle;whiteSpace=wrap;rounded=0;fontSize=17;" vertex="1" parent="1">
          <mxGeometry x="490" y="1847" width="60" height="30" as="geometry" />
        </mxCell>
        <mxCell id="HQ6w1nF9mLyHSZceJTjx-112" value="clk" style="text;strokeColor=none;align=center;fillColor=none;html=1;verticalAlign=middle;whiteSpace=wrap;rounded=0;fontSize=17;" vertex="1" parent="1">
          <mxGeometry x="519" y="1906" width="60" height="30" as="geometry" />
        </mxCell>
        <mxCell id="HQ6w1nF9mLyHSZceJTjx-113" value="d23_special" style="text;strokeColor=none;align=center;fillColor=none;html=1;verticalAlign=middle;whiteSpace=wrap;rounded=0;fontSize=17;" vertex="1" parent="1">
          <mxGeometry x="750" y="1847" width="60" height="30" as="geometry" />
        </mxCell>
        <mxCell id="HQ6w1nF9mLyHSZceJTjx-114" value="clk" style="text;strokeColor=none;align=center;fillColor=none;html=1;verticalAlign=middle;whiteSpace=wrap;rounded=0;fontSize=17;" vertex="1" parent="1">
          <mxGeometry x="520" y="1778" width="60" height="30" as="geometry" />
        </mxCell>
        <mxCell id="HQ6w1nF9mLyHSZceJTjx-115" value="" style="verticalLabelPosition=bottom;shadow=0;dashed=0;align=center;html=1;verticalAlign=top;shape=mxgraph.electrical.logic_gates.d_type_flip-flop;fontSize=12;rounded=0;" vertex="1" parent="1">
          <mxGeometry x="569" y="1703" width="160" height="120" as="geometry" />
        </mxCell>
        <mxCell id="HQ6w1nF9mLyHSZceJTjx-116" value="{d23_CTRL0,d23_CTRL1,d23_CTRL2}" style="text;strokeColor=none;align=center;fillColor=none;html=1;verticalAlign=middle;whiteSpace=wrap;rounded=0;fontSize=17;" vertex="1" parent="1">
          <mxGeometry x="740" y="1717" width="290" height="30" as="geometry" />
        </mxCell>
        <mxCell id="HQ6w1nF9mLyHSZceJTjx-117" value="{d12_CTRL0,d12_CTRL1,d12_CTRL2}" style="text;strokeColor=none;align=center;fillColor=none;html=1;verticalAlign=middle;whiteSpace=wrap;rounded=0;fontSize=17;" vertex="1" parent="1">
          <mxGeometry x="274" y="1717" width="290" height="30" as="geometry" />
        </mxCell>
        <mxCell id="HQ6w1nF9mLyHSZceJTjx-126" value="mulStage1" style="rounded=0;whiteSpace=wrap;html=1;fontSize=16;" vertex="1" parent="1">
          <mxGeometry x="300" y="1450" width="123" height="75" as="geometry" />
        </mxCell>
        <mxCell id="HQ6w1nF9mLyHSZceJTjx-127" value="" style="endArrow=none;html=1;rounded=0;" edge="1" parent="1">
          <mxGeometry width="50" height="50" relative="1" as="geometry">
            <mxPoint x="300" y="1470" as="sourcePoint" />
            <mxPoint x="260" y="1470" as="targetPoint" />
          </mxGeometry>
        </mxCell>
        <mxCell id="HQ6w1nF9mLyHSZceJTjx-128" value="" style="endArrow=none;html=1;rounded=0;" edge="1" parent="1">
          <mxGeometry width="50" height="50" relative="1" as="geometry">
            <mxPoint x="300" y="1510" as="sourcePoint" />
            <mxPoint x="260" y="1510" as="targetPoint" />
          </mxGeometry>
        </mxCell>
        <mxCell id="HQ6w1nF9mLyHSZceJTjx-129" value="" style="endArrow=none;html=1;rounded=0;exitX=0;exitY=0.25;exitDx=0;exitDy=0;exitPerimeter=0;entryX=0.997;entryY=0.265;entryDx=0;entryDy=0;entryPerimeter=0;" edge="1" parent="1" target="HQ6w1nF9mLyHSZceJTjx-126">
          <mxGeometry width="50" height="50" relative="1" as="geometry">
            <mxPoint x="572" y="1470" as="sourcePoint" />
            <mxPoint x="383" y="1470" as="targetPoint" />
          </mxGeometry>
        </mxCell>
        <mxCell id="HQ6w1nF9mLyHSZceJTjx-130" value="" style="endArrow=none;html=1;rounded=0;exitX=0;exitY=0.25;exitDx=0;exitDy=0;exitPerimeter=0;entryX=1.004;entryY=0.792;entryDx=0;entryDy=0;entryPerimeter=0;" edge="1" parent="1" source="HQ6w1nF9mLyHSZceJTjx-134" target="HQ6w1nF9mLyHSZceJTjx-126">
          <mxGeometry width="50" height="50" relative="1" as="geometry">
            <mxPoint x="569" y="1594" as="sourcePoint" />
            <mxPoint x="376" y="1508" as="targetPoint" />
            <Array as="points">
              <mxPoint x="520" y="1600" />
              <mxPoint x="520" y="1510" />
            </Array>
          </mxGeometry>
        </mxCell>
        <mxCell id="HQ6w1nF9mLyHSZceJTjx-131" value="d12_abs_x[3:0]" style="text;strokeColor=none;align=center;fillColor=none;html=1;verticalAlign=middle;whiteSpace=wrap;rounded=0;fontSize=17;" vertex="1" parent="1">
          <mxGeometry x="160" y="1450" width="60" height="30" as="geometry" />
        </mxCell>
        <mxCell id="HQ6w1nF9mLyHSZceJTjx-132" value="d12_aValue[3:0]" style="text;strokeColor=none;align=center;fillColor=none;html=1;verticalAlign=middle;whiteSpace=wrap;rounded=0;fontSize=17;" vertex="1" parent="1">
          <mxGeometry x="163" y="1495" width="60" height="30" as="geometry" />
        </mxCell>
        <mxCell id="HQ6w1nF9mLyHSZceJTjx-133" value="" style="verticalLabelPosition=bottom;shadow=0;dashed=0;align=center;html=1;verticalAlign=top;shape=mxgraph.electrical.logic_gates.d_type_flip-flop;fontSize=12;rounded=0;" vertex="1" parent="1">
          <mxGeometry x="569" y="1440" width="160" height="120" as="geometry" />
        </mxCell>
        <mxCell id="HQ6w1nF9mLyHSZceJTjx-134" value="" style="verticalLabelPosition=bottom;shadow=0;dashed=0;align=center;html=1;verticalAlign=top;shape=mxgraph.electrical.logic_gates.d_type_flip-flop;fontSize=12;rounded=0;" vertex="1" parent="1">
          <mxGeometry x="569" y="1570" width="160" height="120" as="geometry" />
        </mxCell>
        <mxCell id="HQ6w1nF9mLyHSZceJTjx-135" value="clk" style="text;strokeColor=none;align=center;fillColor=none;html=1;verticalAlign=middle;whiteSpace=wrap;rounded=0;fontSize=17;" vertex="1" parent="1">
          <mxGeometry x="520" y="1644" width="60" height="30" as="geometry" />
        </mxCell>
        <mxCell id="HQ6w1nF9mLyHSZceJTjx-136" value="add01[5:0]" style="text;strokeColor=none;align=center;fillColor=none;html=1;verticalAlign=middle;whiteSpace=wrap;rounded=0;fontSize=17;" vertex="1" parent="1">
          <mxGeometry x="440" y="1440" width="60" height="30" as="geometry" />
        </mxCell>
        <mxCell id="HQ6w1nF9mLyHSZceJTjx-137" value="d23_add01[5:0]" style="text;strokeColor=none;align=center;fillColor=none;html=1;verticalAlign=middle;whiteSpace=wrap;rounded=0;fontSize=17;" vertex="1" parent="1">
          <mxGeometry x="769" y="1454" width="60" height="30" as="geometry" />
        </mxCell>
        <mxCell id="HQ6w1nF9mLyHSZceJTjx-138" value="d23_add23[5:0]" style="text;strokeColor=none;align=center;fillColor=none;html=1;verticalAlign=middle;whiteSpace=wrap;rounded=0;fontSize=17;" vertex="1" parent="1">
          <mxGeometry x="769" y="1583" width="60" height="30" as="geometry" />
        </mxCell>
        <mxCell id="HQ6w1nF9mLyHSZceJTjx-139" value="clk" style="text;strokeColor=none;align=center;fillColor=none;html=1;verticalAlign=middle;whiteSpace=wrap;rounded=0;fontSize=17;" vertex="1" parent="1">
          <mxGeometry x="520" y="1513" width="60" height="30" as="geometry" />
        </mxCell>
        <mxCell id="HQ6w1nF9mLyHSZceJTjx-140" value="add23[5:0]" style="text;strokeColor=none;align=center;fillColor=none;html=1;verticalAlign=middle;whiteSpace=wrap;rounded=0;fontSize=17;" vertex="1" parent="1">
          <mxGeometry x="440" y="1513" width="60" height="30" as="geometry" />
        </mxCell>
        <mxCell id="HQ6w1nF9mLyHSZceJTjx-142" value="" style="verticalLabelPosition=bottom;shadow=0;dashed=0;align=center;html=1;verticalAlign=top;shape=mxgraph.electrical.logic_gates.inverter_2;rounded=0;" vertex="1" parent="1">
          <mxGeometry x="410" y="2422.5" width="100" height="60" as="geometry" />
        </mxCell>
        <mxCell id="HQ6w1nF9mLyHSZceJTjx-143" value="" style="endArrow=none;html=1;rounded=0;entryX=0.005;entryY=0.206;entryDx=0;entryDy=0;entryPerimeter=0;exitX=0;exitY=0.5;exitDx=0;exitDy=0;exitPerimeter=0;" edge="1" parent="1" target="HQ6w1nF9mLyHSZceJTjx-145" source="HQ6w1nF9mLyHSZceJTjx-142">
          <mxGeometry width="50" height="50" relative="1" as="geometry">
            <mxPoint x="320" y="2452.5" as="sourcePoint" />
            <mxPoint x="700" y="2412.5" as="targetPoint" />
            <Array as="points">
              <mxPoint x="410" y="2412.5" />
            </Array>
          </mxGeometry>
        </mxCell>
        <mxCell id="HQ6w1nF9mLyHSZceJTjx-145" value="b10bitsSelectorEnhanced" style="rounded=0;whiteSpace=wrap;html=1;fontSize=16;" vertex="1" parent="1">
          <mxGeometry x="830" y="2397.5" width="203" height="75" as="geometry" />
        </mxCell>
        <mxCell id="HQ6w1nF9mLyHSZceJTjx-146" value="" style="endArrow=none;html=1;rounded=0;exitX=0.002;exitY=0.729;exitDx=0;exitDy=0;entryX=1;entryY=0.5;entryDx=0;entryDy=0;entryPerimeter=0;exitPerimeter=0;" edge="1" parent="1" source="HQ6w1nF9mLyHSZceJTjx-145" target="HQ6w1nF9mLyHSZceJTjx-142">
          <mxGeometry width="50" height="50" relative="1" as="geometry">
            <mxPoint x="587" y="2437.36" as="sourcePoint" />
            <mxPoint x="509" y="2437.36" as="targetPoint" />
          </mxGeometry>
        </mxCell>
        <mxCell id="HQ6w1nF9mLyHSZceJTjx-149" value="" style="verticalLabelPosition=bottom;shadow=0;dashed=0;align=center;html=1;verticalAlign=top;shape=mxgraph.electrical.logic_gates.d_type_flip-flop;fontSize=12;rounded=0;" vertex="1" parent="1">
          <mxGeometry x="1099" y="2394.5" width="160" height="120" as="geometry" />
        </mxCell>
        <mxCell id="HQ6w1nF9mLyHSZceJTjx-150" value="" style="endArrow=none;html=1;rounded=0;exitX=0;exitY=0.25;exitDx=0;exitDy=0;entryX=1;entryY=0.5;entryDx=0;entryDy=0;entryPerimeter=0;exitPerimeter=0;" edge="1" parent="1" source="HQ6w1nF9mLyHSZceJTjx-149">
          <mxGeometry width="50" height="50" relative="1" as="geometry">
            <mxPoint x="1233" y="2424.26" as="sourcePoint" />
            <mxPoint x="1033" y="2424.26" as="targetPoint" />
          </mxGeometry>
        </mxCell>
        <mxCell id="HQ6w1nF9mLyHSZceJTjx-151" value="bValue[9:0]" style="text;strokeColor=none;align=center;fillColor=none;html=1;verticalAlign=middle;whiteSpace=wrap;rounded=0;fontSize=17;" vertex="1" parent="1">
          <mxGeometry x="1050" y="2390" width="60" height="30" as="geometry" />
        </mxCell>
        <mxCell id="HQ6w1nF9mLyHSZceJTjx-152" value="clk" style="text;strokeColor=none;align=center;fillColor=none;html=1;verticalAlign=middle;whiteSpace=wrap;rounded=0;fontSize=17;" vertex="1" parent="1">
          <mxGeometry x="1050" y="2468.5" width="60" height="30" as="geometry" />
        </mxCell>
        <mxCell id="HQ6w1nF9mLyHSZceJTjx-157" value="d34_bValue[9:0]" style="text;strokeColor=none;align=center;fillColor=none;html=1;verticalAlign=middle;whiteSpace=wrap;rounded=0;fontSize=17;" vertex="1" parent="1">
          <mxGeometry x="1296" y="2407.5" width="60" height="30" as="geometry" />
        </mxCell>
        <mxCell id="HQ6w1nF9mLyHSZceJTjx-158" value="{d23_nCTRL0,d23_nCTRL1,d23_nCTRL2}" style="text;strokeColor=none;align=center;fillColor=none;html=1;verticalAlign=middle;whiteSpace=wrap;rounded=0;fontSize=17;" vertex="1" parent="1">
          <mxGeometry x="510" y="2420" width="290" height="30" as="geometry" />
        </mxCell>
        <mxCell id="HQ6w1nF9mLyHSZceJTjx-160" value="" style="endArrow=none;html=1;rounded=0;" edge="1" parent="1">
          <mxGeometry width="50" height="50" relative="1" as="geometry">
            <mxPoint x="340" y="2452.5" as="sourcePoint" />
            <mxPoint x="410" y="2452.5" as="targetPoint" />
          </mxGeometry>
        </mxCell>
        <mxCell id="HQ6w1nF9mLyHSZceJTjx-161" value="{d23_CTRL0,d23_CTRL1,d23_CTRL2}" style="text;strokeColor=none;align=center;fillColor=none;html=1;verticalAlign=middle;whiteSpace=wrap;rounded=0;fontSize=17;" vertex="1" parent="1">
          <mxGeometry x="40" y="2437.5" width="290" height="30" as="geometry" />
        </mxCell>
        <mxCell id="HQ6w1nF9mLyHSZceJTjx-162" value="mulStage2" style="rounded=0;whiteSpace=wrap;html=1;fontSize=16;" vertex="1" parent="1">
          <mxGeometry x="910" y="2260" width="120" height="80" as="geometry" />
        </mxCell>
        <mxCell id="HQ6w1nF9mLyHSZceJTjx-163" value="" style="endArrow=none;html=1;rounded=0;" edge="1" parent="1">
          <mxGeometry width="50" height="50" relative="1" as="geometry">
            <mxPoint x="910" y="2280" as="sourcePoint" />
            <mxPoint x="870" y="2280" as="targetPoint" />
          </mxGeometry>
        </mxCell>
        <mxCell id="HQ6w1nF9mLyHSZceJTjx-164" value="" style="endArrow=none;html=1;rounded=0;" edge="1" parent="1">
          <mxGeometry width="50" height="50" relative="1" as="geometry">
            <mxPoint x="910" y="2320" as="sourcePoint" />
            <mxPoint x="870" y="2320" as="targetPoint" />
          </mxGeometry>
        </mxCell>
        <mxCell id="HQ6w1nF9mLyHSZceJTjx-165" value="d23_add01[5:0]" style="text;strokeColor=none;align=center;fillColor=none;html=1;verticalAlign=middle;whiteSpace=wrap;rounded=0;fontSize=17;" vertex="1" parent="1">
          <mxGeometry x="776" y="2260" width="60" height="30" as="geometry" />
        </mxCell>
        <mxCell id="HQ6w1nF9mLyHSZceJTjx-166" value="d23_add23[5:0]" style="text;strokeColor=none;align=center;fillColor=none;html=1;verticalAlign=middle;whiteSpace=wrap;rounded=0;fontSize=17;" vertex="1" parent="1">
          <mxGeometry x="776" y="2305" width="60" height="30" as="geometry" />
        </mxCell>
        <mxCell id="HQ6w1nF9mLyHSZceJTjx-167" value="" style="endArrow=none;html=1;rounded=0;entryX=1;entryY=0.5;entryDx=0;entryDy=0;exitX=0;exitY=0.25;exitDx=0;exitDy=0;exitPerimeter=0;" edge="1" parent="1" source="HQ6w1nF9mLyHSZceJTjx-169" target="HQ6w1nF9mLyHSZceJTjx-162">
          <mxGeometry width="50" height="50" relative="1" as="geometry">
            <mxPoint x="1200" y="2240" as="sourcePoint" />
            <mxPoint x="877" y="2260" as="targetPoint" />
          </mxGeometry>
        </mxCell>
        <mxCell id="HQ6w1nF9mLyHSZceJTjx-169" value="" style="verticalLabelPosition=bottom;shadow=0;dashed=0;align=center;html=1;verticalAlign=top;shape=mxgraph.electrical.logic_gates.d_type_flip-flop;fontSize=12;rounded=0;" vertex="1" parent="1">
          <mxGeometry x="1099" y="2270" width="160" height="120" as="geometry" />
        </mxCell>
        <mxCell id="HQ6w1nF9mLyHSZceJTjx-170" value="clk" style="text;strokeColor=none;align=center;fillColor=none;html=1;verticalAlign=middle;whiteSpace=wrap;rounded=0;fontSize=17;" vertex="1" parent="1">
          <mxGeometry x="1050" y="2344" width="60" height="30" as="geometry" />
        </mxCell>
        <mxCell id="HQ6w1nF9mLyHSZceJTjx-171" value="d34_mul[7:0]" style="text;strokeColor=none;align=center;fillColor=none;html=1;verticalAlign=middle;whiteSpace=wrap;rounded=0;fontSize=17;" vertex="1" parent="1">
          <mxGeometry x="1290" y="2285" width="60" height="30" as="geometry" />
        </mxCell>
        <mxCell id="HQ6w1nF9mLyHSZceJTjx-172" value="mul[7:0]" style="text;strokeColor=none;align=center;fillColor=none;html=1;verticalAlign=middle;whiteSpace=wrap;rounded=0;fontSize=17;" vertex="1" parent="1">
          <mxGeometry x="1050" y="2270" width="60" height="30" as="geometry" />
        </mxCell>
        <mxCell id="HQ6w1nF9mLyHSZceJTjx-173" value="" style="verticalLabelPosition=bottom;shadow=0;dashed=0;align=center;html=1;verticalAlign=top;shape=mxgraph.electrical.logic_gates.d_type_flip-flop;fontSize=12;rounded=0;" vertex="1" parent="1">
          <mxGeometry x="1099" y="2770" width="160" height="120" as="geometry" />
        </mxCell>
        <mxCell id="HQ6w1nF9mLyHSZceJTjx-174" value="d23_valid" style="text;strokeColor=none;align=center;fillColor=none;html=1;verticalAlign=middle;whiteSpace=wrap;rounded=0;fontSize=17;" vertex="1" parent="1">
          <mxGeometry x="1030" y="2784" width="60" height="30" as="geometry" />
        </mxCell>
        <mxCell id="HQ6w1nF9mLyHSZceJTjx-175" value="clk" style="text;strokeColor=none;align=center;fillColor=none;html=1;verticalAlign=middle;whiteSpace=wrap;rounded=0;fontSize=17;" vertex="1" parent="1">
          <mxGeometry x="1049" y="2843" width="60" height="30" as="geometry" />
        </mxCell>
        <mxCell id="HQ6w1nF9mLyHSZceJTjx-176" value="d34_valid" style="text;strokeColor=none;align=center;fillColor=none;html=1;verticalAlign=middle;whiteSpace=wrap;rounded=0;fontSize=17;" vertex="1" parent="1">
          <mxGeometry x="1270" y="2784" width="60" height="30" as="geometry" />
        </mxCell>
        <mxCell id="HQ6w1nF9mLyHSZceJTjx-177" value="" style="verticalLabelPosition=bottom;shadow=0;dashed=0;align=center;html=1;verticalAlign=top;shape=mxgraph.electrical.logic_gates.d_type_flip-flop;fontSize=12;rounded=0;" vertex="1" parent="1">
          <mxGeometry x="1099" y="2645" width="160" height="120" as="geometry" />
        </mxCell>
        <mxCell id="HQ6w1nF9mLyHSZceJTjx-178" value="d23_sign" style="text;strokeColor=none;align=center;fillColor=none;html=1;verticalAlign=middle;whiteSpace=wrap;rounded=0;fontSize=17;" vertex="1" parent="1">
          <mxGeometry x="1030" y="2659" width="60" height="30" as="geometry" />
        </mxCell>
        <mxCell id="HQ6w1nF9mLyHSZceJTjx-179" value="clk" style="text;strokeColor=none;align=center;fillColor=none;html=1;verticalAlign=middle;whiteSpace=wrap;rounded=0;fontSize=17;" vertex="1" parent="1">
          <mxGeometry x="1049" y="2718" width="60" height="30" as="geometry" />
        </mxCell>
        <mxCell id="HQ6w1nF9mLyHSZceJTjx-180" value="d34_sign" style="text;strokeColor=none;align=center;fillColor=none;html=1;verticalAlign=middle;whiteSpace=wrap;rounded=0;fontSize=17;" vertex="1" parent="1">
          <mxGeometry x="1270" y="2659" width="60" height="30" as="geometry" />
        </mxCell>
        <mxCell id="HQ6w1nF9mLyHSZceJTjx-181" value="" style="verticalLabelPosition=bottom;shadow=0;dashed=0;align=center;html=1;verticalAlign=top;shape=mxgraph.electrical.logic_gates.d_type_flip-flop;fontSize=12;rounded=0;" vertex="1" parent="1">
          <mxGeometry x="1099" y="2520" width="160" height="120" as="geometry" />
        </mxCell>
        <mxCell id="HQ6w1nF9mLyHSZceJTjx-182" value="d23_special" style="text;strokeColor=none;align=center;fillColor=none;html=1;verticalAlign=middle;whiteSpace=wrap;rounded=0;fontSize=17;" vertex="1" parent="1">
          <mxGeometry x="1020" y="2534" width="60" height="30" as="geometry" />
        </mxCell>
        <mxCell id="HQ6w1nF9mLyHSZceJTjx-183" value="clk" style="text;strokeColor=none;align=center;fillColor=none;html=1;verticalAlign=middle;whiteSpace=wrap;rounded=0;fontSize=17;" vertex="1" parent="1">
          <mxGeometry x="1049" y="2593" width="60" height="30" as="geometry" />
        </mxCell>
        <mxCell id="HQ6w1nF9mLyHSZceJTjx-184" value="d34_special" style="text;strokeColor=none;align=center;fillColor=none;html=1;verticalAlign=middle;whiteSpace=wrap;rounded=0;fontSize=17;" vertex="1" parent="1">
          <mxGeometry x="1280" y="2534" width="60" height="30" as="geometry" />
        </mxCell>
        <mxCell id="HQ6w1nF9mLyHSZceJTjx-198" value="addStage" style="rounded=0;whiteSpace=wrap;html=1;fontSize=16;" vertex="1" parent="1">
          <mxGeometry x="414" y="2880" width="120" height="80" as="geometry" />
        </mxCell>
        <mxCell id="HQ6w1nF9mLyHSZceJTjx-199" value="" style="endArrow=none;html=1;rounded=0;" edge="1" parent="1">
          <mxGeometry width="50" height="50" relative="1" as="geometry">
            <mxPoint x="414" y="2900" as="sourcePoint" />
            <mxPoint x="374" y="2900" as="targetPoint" />
          </mxGeometry>
        </mxCell>
        <mxCell id="HQ6w1nF9mLyHSZceJTjx-200" value="" style="endArrow=none;html=1;rounded=0;" edge="1" parent="1">
          <mxGeometry width="50" height="50" relative="1" as="geometry">
            <mxPoint x="414" y="2940" as="sourcePoint" />
            <mxPoint x="374" y="2940" as="targetPoint" />
          </mxGeometry>
        </mxCell>
        <mxCell id="HQ6w1nF9mLyHSZceJTjx-201" value="d34_mul[7:0]" style="text;strokeColor=none;align=center;fillColor=none;html=1;verticalAlign=middle;whiteSpace=wrap;rounded=0;fontSize=17;" vertex="1" parent="1">
          <mxGeometry x="290" y="2883" width="60" height="30" as="geometry" />
        </mxCell>
        <mxCell id="HQ6w1nF9mLyHSZceJTjx-202" value="d34_bValue[9:0]" style="text;strokeColor=none;align=center;fillColor=none;html=1;verticalAlign=middle;whiteSpace=wrap;rounded=0;fontSize=17;" vertex="1" parent="1">
          <mxGeometry x="280" y="2925" width="60" height="30" as="geometry" />
        </mxCell>
        <mxCell id="HQ6w1nF9mLyHSZceJTjx-203" value="" style="endArrow=none;html=1;rounded=0;entryX=1;entryY=0.5;entryDx=0;entryDy=0;exitX=0;exitY=0.25;exitDx=0;exitDy=0;exitPerimeter=0;" edge="1" parent="1" source="HQ6w1nF9mLyHSZceJTjx-204" target="HQ6w1nF9mLyHSZceJTjx-198">
          <mxGeometry width="50" height="50" relative="1" as="geometry">
            <mxPoint x="704" y="2860" as="sourcePoint" />
            <mxPoint x="381" y="2880" as="targetPoint" />
          </mxGeometry>
        </mxCell>
        <mxCell id="HQ6w1nF9mLyHSZceJTjx-204" value="" style="verticalLabelPosition=bottom;shadow=0;dashed=0;align=center;html=1;verticalAlign=top;shape=mxgraph.electrical.logic_gates.d_type_flip-flop;fontSize=12;rounded=0;" vertex="1" parent="1">
          <mxGeometry x="603" y="2890" width="160" height="120" as="geometry" />
        </mxCell>
        <mxCell id="HQ6w1nF9mLyHSZceJTjx-205" value="clk" style="text;strokeColor=none;align=center;fillColor=none;html=1;verticalAlign=middle;whiteSpace=wrap;rounded=0;fontSize=17;" vertex="1" parent="1">
          <mxGeometry x="554" y="2964" width="60" height="30" as="geometry" />
        </mxCell>
        <mxCell id="HQ6w1nF9mLyHSZceJTjx-206" value="d45_funcOut[9:0]" style="text;strokeColor=none;align=center;fillColor=none;html=1;verticalAlign=middle;whiteSpace=wrap;rounded=0;fontSize=17;" vertex="1" parent="1">
          <mxGeometry x="806" y="2905" width="60" height="30" as="geometry" />
        </mxCell>
        <mxCell id="HQ6w1nF9mLyHSZceJTjx-207" value="funcOut[9:0]" style="text;strokeColor=none;align=center;fillColor=none;html=1;verticalAlign=middle;whiteSpace=wrap;rounded=0;fontSize=17;" vertex="1" parent="1">
          <mxGeometry x="554" y="2890" width="60" height="30" as="geometry" />
        </mxCell>
        <mxCell id="HQ6w1nF9mLyHSZceJTjx-208" value="" style="verticalLabelPosition=bottom;shadow=0;dashed=0;align=center;html=1;verticalAlign=top;shape=mxgraph.electrical.logic_gates.d_type_flip-flop;fontSize=12;rounded=0;" vertex="1" parent="1">
          <mxGeometry x="602" y="3270" width="160" height="120" as="geometry" />
        </mxCell>
        <mxCell id="HQ6w1nF9mLyHSZceJTjx-209" value="d45_valid" style="text;strokeColor=none;align=center;fillColor=none;html=1;verticalAlign=middle;whiteSpace=wrap;rounded=0;fontSize=17;" vertex="1" parent="1">
          <mxGeometry x="533" y="3284" width="60" height="30" as="geometry" />
        </mxCell>
        <mxCell id="HQ6w1nF9mLyHSZceJTjx-210" value="clk" style="text;strokeColor=none;align=center;fillColor=none;html=1;verticalAlign=middle;whiteSpace=wrap;rounded=0;fontSize=17;" vertex="1" parent="1">
          <mxGeometry x="552" y="3343" width="60" height="30" as="geometry" />
        </mxCell>
        <mxCell id="HQ6w1nF9mLyHSZceJTjx-211" value="d45_valid" style="text;strokeColor=none;align=center;fillColor=none;html=1;verticalAlign=middle;whiteSpace=wrap;rounded=0;fontSize=17;" vertex="1" parent="1">
          <mxGeometry x="773" y="3284" width="60" height="30" as="geometry" />
        </mxCell>
        <mxCell id="HQ6w1nF9mLyHSZceJTjx-212" value="" style="verticalLabelPosition=bottom;shadow=0;dashed=0;align=center;html=1;verticalAlign=top;shape=mxgraph.electrical.logic_gates.d_type_flip-flop;fontSize=12;rounded=0;" vertex="1" parent="1">
          <mxGeometry x="602" y="3145" width="160" height="120" as="geometry" />
        </mxCell>
        <mxCell id="HQ6w1nF9mLyHSZceJTjx-213" value="d45_sign" style="text;strokeColor=none;align=center;fillColor=none;html=1;verticalAlign=middle;whiteSpace=wrap;rounded=0;fontSize=17;" vertex="1" parent="1">
          <mxGeometry x="533" y="3159" width="60" height="30" as="geometry" />
        </mxCell>
        <mxCell id="HQ6w1nF9mLyHSZceJTjx-214" value="clk" style="text;strokeColor=none;align=center;fillColor=none;html=1;verticalAlign=middle;whiteSpace=wrap;rounded=0;fontSize=17;" vertex="1" parent="1">
          <mxGeometry x="552" y="3218" width="60" height="30" as="geometry" />
        </mxCell>
        <mxCell id="HQ6w1nF9mLyHSZceJTjx-215" value="d45_sign" style="text;strokeColor=none;align=center;fillColor=none;html=1;verticalAlign=middle;whiteSpace=wrap;rounded=0;fontSize=17;" vertex="1" parent="1">
          <mxGeometry x="773" y="3159" width="60" height="30" as="geometry" />
        </mxCell>
        <mxCell id="HQ6w1nF9mLyHSZceJTjx-216" value="" style="verticalLabelPosition=bottom;shadow=0;dashed=0;align=center;html=1;verticalAlign=top;shape=mxgraph.electrical.logic_gates.d_type_flip-flop;fontSize=12;rounded=0;" vertex="1" parent="1">
          <mxGeometry x="602" y="3020" width="160" height="120" as="geometry" />
        </mxCell>
        <mxCell id="HQ6w1nF9mLyHSZceJTjx-217" value="d34_special" style="text;strokeColor=none;align=center;fillColor=none;html=1;verticalAlign=middle;whiteSpace=wrap;rounded=0;fontSize=17;" vertex="1" parent="1">
          <mxGeometry x="523" y="3034" width="60" height="30" as="geometry" />
        </mxCell>
        <mxCell id="HQ6w1nF9mLyHSZceJTjx-218" value="clk" style="text;strokeColor=none;align=center;fillColor=none;html=1;verticalAlign=middle;whiteSpace=wrap;rounded=0;fontSize=17;" vertex="1" parent="1">
          <mxGeometry x="552" y="3093" width="60" height="30" as="geometry" />
        </mxCell>
        <mxCell id="HQ6w1nF9mLyHSZceJTjx-219" value="d45_special" style="text;strokeColor=none;align=center;fillColor=none;html=1;verticalAlign=middle;whiteSpace=wrap;rounded=0;fontSize=17;" vertex="1" parent="1">
          <mxGeometry x="783" y="3034" width="60" height="30" as="geometry" />
        </mxCell>
        <mxCell id="HQ6w1nF9mLyHSZceJTjx-220" value="" style="endArrow=none;html=1;rounded=0;entryX=0;entryY=0.5;entryDx=0;entryDy=0;entryPerimeter=0;" edge="1" parent="1" target="HQ6w1nF9mLyHSZceJTjx-54">
          <mxGeometry width="50" height="50" relative="1" as="geometry">
            <mxPoint x="450" y="850" as="sourcePoint" />
            <mxPoint x="270" y="950" as="targetPoint" />
          </mxGeometry>
        </mxCell>
        <mxCell id="HQ6w1nF9mLyHSZceJTjx-221" value="" style="verticalLabelPosition=bottom;shadow=0;dashed=0;align=center;html=1;verticalAlign=top;shape=mxgraph.electrical.logic_gates.logic_gate;operation=xor;" vertex="1" parent="1">
          <mxGeometry x="170" y="3520" width="100" height="60" as="geometry" />
        </mxCell>
        <mxCell id="HQ6w1nF9mLyHSZceJTjx-222" value="" style="verticalLabelPosition=bottom;shadow=0;dashed=0;align=center;html=1;verticalAlign=top;shape=mxgraph.electrical.logic_gates.inverter_2;rounded=0;" vertex="1" parent="1">
          <mxGeometry x="170" y="3640" width="100" height="60" as="geometry" />
        </mxCell>
        <mxCell id="HQ6w1nF9mLyHSZceJTjx-223" value="" style="endArrow=none;html=1;rounded=0;entryX=1;entryY=0.5;entryDx=0;entryDy=0;entryPerimeter=0;" edge="1" parent="1" target="HQ6w1nF9mLyHSZceJTjx-221">
          <mxGeometry width="50" height="50" relative="1" as="geometry">
            <mxPoint x="350" y="3550" as="sourcePoint" />
            <mxPoint x="230" y="3690" as="targetPoint" />
          </mxGeometry>
        </mxCell>
        <mxCell id="HQ6w1nF9mLyHSZceJTjx-224" value="" style="endArrow=none;html=1;rounded=0;entryX=1;entryY=0.5;entryDx=0;entryDy=0;entryPerimeter=0;" edge="1" parent="1" target="HQ6w1nF9mLyHSZceJTjx-222">
          <mxGeometry width="50" height="50" relative="1" as="geometry">
            <mxPoint x="350" y="3670" as="sourcePoint" />
            <mxPoint x="340" y="3660" as="targetPoint" />
          </mxGeometry>
        </mxCell>
        <mxCell id="HQ6w1nF9mLyHSZceJTjx-225" value="d45_sign" style="text;strokeColor=none;align=center;fillColor=none;html=1;verticalAlign=middle;whiteSpace=wrap;rounded=0;fontSize=17;" vertex="1" parent="1">
          <mxGeometry x="100" y="3550" width="60" height="30" as="geometry" />
        </mxCell>
        <mxCell id="HQ6w1nF9mLyHSZceJTjx-226" value="d45_sign" style="text;strokeColor=none;align=center;fillColor=none;html=1;verticalAlign=middle;whiteSpace=wrap;rounded=0;fontSize=17;" vertex="1" parent="1">
          <mxGeometry x="100" y="3655" width="60" height="30" as="geometry" />
        </mxCell>
        <mxCell id="HQ6w1nF9mLyHSZceJTjx-227" value="d45_sign" style="text;strokeColor=none;align=center;fillColor=none;html=1;verticalAlign=middle;whiteSpace=wrap;rounded=0;fontSize=17;" vertex="1" parent="1">
          <mxGeometry x="100" y="3450" width="60" height="30" as="geometry" />
        </mxCell>
        <mxCell id="HQ6w1nF9mLyHSZceJTjx-228" value="" style="endArrow=none;html=1;rounded=0;" edge="1" parent="1">
          <mxGeometry width="50" height="50" relative="1" as="geometry">
            <mxPoint x="350" y="3465" as="sourcePoint" />
            <mxPoint x="179" y="3464.55" as="targetPoint" />
          </mxGeometry>
        </mxCell>
        <mxCell id="HQ6w1nF9mLyHSZceJTjx-229" value="outTemp1[3]" style="text;strokeColor=none;align=center;fillColor=none;html=1;verticalAlign=middle;whiteSpace=wrap;rounded=0;fontSize=17;" vertex="1" parent="1">
          <mxGeometry x="383" y="3450" width="60" height="30" as="geometry" />
        </mxCell>
        <mxCell id="HQ6w1nF9mLyHSZceJTjx-230" value="outTemp1[13:4]" style="text;strokeColor=none;align=center;fillColor=none;html=1;verticalAlign=middle;whiteSpace=wrap;rounded=0;fontSize=17;" vertex="1" parent="1">
          <mxGeometry x="390" y="3535" width="60" height="30" as="geometry" />
        </mxCell>
        <mxCell id="HQ6w1nF9mLyHSZceJTjx-231" value="outTemp1[14]" style="text;strokeColor=none;align=center;fillColor=none;html=1;verticalAlign=middle;whiteSpace=wrap;rounded=0;fontSize=17;" vertex="1" parent="1">
          <mxGeometry x="380" y="3655" width="60" height="30" as="geometry" />
        </mxCell>
        <mxCell id="HQ6w1nF9mLyHSZceJTjx-232" value="d45_funcOut[9:0]" style="text;strokeColor=none;align=center;fillColor=none;html=1;verticalAlign=middle;whiteSpace=wrap;rounded=0;fontSize=17;" vertex="1" parent="1">
          <mxGeometry x="70" y="3520" width="60" height="30" as="geometry" />
        </mxCell>
        <mxCell id="HQ6w1nF9mLyHSZceJTjx-233" value="d45_nSign" style="text;strokeColor=none;align=center;fillColor=none;html=1;verticalAlign=middle;whiteSpace=wrap;rounded=0;fontSize=17;" vertex="1" parent="1">
          <mxGeometry x="280" y="3640" width="60" height="30" as="geometry" />
        </mxCell>
        <mxCell id="HQ6w1nF9mLyHSZceJTjx-234" value="d01_x[7]" style="text;strokeColor=none;align=center;fillColor=none;html=1;verticalAlign=middle;whiteSpace=wrap;rounded=0;fontSize=17;" vertex="1" parent="1">
          <mxGeometry x="893" y="1110" width="60" height="30" as="geometry" />
        </mxCell>
        <mxCell id="HQ6w1nF9mLyHSZceJTjx-235" value="d01_x[7]" style="text;strokeColor=none;align=center;fillColor=none;html=1;verticalAlign=middle;whiteSpace=wrap;rounded=0;fontSize=17;" vertex="1" parent="1">
          <mxGeometry x="799" y="992" width="60" height="30" as="geometry" />
        </mxCell>
        <mxCell id="HQ6w1nF9mLyHSZceJTjx-236" value="" style="verticalLabelPosition=bottom;shadow=0;dashed=0;align=center;html=1;verticalAlign=top;shape=mxgraph.electrical.logic_gates.inverter_2;rounded=0;" vertex="1" parent="1">
          <mxGeometry x="604" y="3502.5" width="100" height="60" as="geometry" />
        </mxCell>
        <mxCell id="HQ6w1nF9mLyHSZceJTjx-237" value="outTemp1[6]" style="text;strokeColor=none;align=center;fillColor=none;html=1;verticalAlign=middle;whiteSpace=wrap;rounded=0;fontSize=17;" vertex="1" parent="1">
          <mxGeometry x="524" y="3517.5" width="60" height="30" as="geometry" />
        </mxCell>
        <mxCell id="HQ6w1nF9mLyHSZceJTjx-240" value="n6" style="text;strokeColor=none;align=center;fillColor=none;html=1;verticalAlign=middle;whiteSpace=wrap;rounded=0;fontSize=17;" vertex="1" parent="1">
          <mxGeometry x="699" y="3517.5" width="60" height="30" as="geometry" />
        </mxCell>
        <mxCell id="HQ6w1nF9mLyHSZceJTjx-242" value="" style="verticalLabelPosition=bottom;shadow=0;dashed=0;align=center;html=1;verticalAlign=top;shape=mxgraph.electrical.logic_gates.inverter_2;rounded=0;" vertex="1" parent="1">
          <mxGeometry x="604" y="3647.5" width="100" height="60" as="geometry" />
        </mxCell>
        <mxCell id="HQ6w1nF9mLyHSZceJTjx-243" value="d45_special" style="text;strokeColor=none;align=center;fillColor=none;html=1;verticalAlign=middle;whiteSpace=wrap;rounded=0;fontSize=17;" vertex="1" parent="1">
          <mxGeometry x="524" y="3662.5" width="60" height="30" as="geometry" />
        </mxCell>
        <mxCell id="HQ6w1nF9mLyHSZceJTjx-244" value="d45_nSpecial" style="text;strokeColor=none;align=center;fillColor=none;html=1;verticalAlign=middle;whiteSpace=wrap;rounded=0;fontSize=17;" vertex="1" parent="1">
          <mxGeometry x="734" y="3662.5" width="60" height="30" as="geometry" />
        </mxCell>
        <mxCell id="HQ6w1nF9mLyHSZceJTjx-245" value="" style="verticalLabelPosition=bottom;shadow=0;dashed=0;align=center;html=1;verticalAlign=top;shape=mxgraph.electrical.logic_gates.inverter_2;rounded=0;" vertex="1" parent="1">
          <mxGeometry x="604" y="3572.5" width="100" height="60" as="geometry" />
        </mxCell>
        <mxCell id="HQ6w1nF9mLyHSZceJTjx-246" value="outTemp1[9]" style="text;strokeColor=none;align=center;fillColor=none;html=1;verticalAlign=middle;whiteSpace=wrap;rounded=0;fontSize=17;" vertex="1" parent="1">
          <mxGeometry x="524" y="3587.5" width="60" height="30" as="geometry" />
        </mxCell>
        <mxCell id="HQ6w1nF9mLyHSZceJTjx-247" value="n9" style="text;strokeColor=none;align=center;fillColor=none;html=1;verticalAlign=middle;whiteSpace=wrap;rounded=0;fontSize=17;" vertex="1" parent="1">
          <mxGeometry x="699" y="3587.5" width="60" height="30" as="geometry" />
        </mxCell>
        <mxCell id="HQ6w1nF9mLyHSZceJTjx-248" value="d45_nSign" style="text;strokeColor=none;align=center;fillColor=none;html=1;verticalAlign=middle;whiteSpace=wrap;rounded=0;fontSize=17;" vertex="1" parent="1">
          <mxGeometry x="524" y="3450" width="60" height="30" as="geometry" />
        </mxCell>
        <mxCell id="HQ6w1nF9mLyHSZceJTjx-249" value="" style="endArrow=none;html=1;rounded=0;" edge="1" parent="1">
          <mxGeometry width="50" height="50" relative="1" as="geometry">
            <mxPoint x="705" y="3465" as="sourcePoint" />
            <mxPoint x="605" y="3465" as="targetPoint" />
          </mxGeometry>
        </mxCell>
        <mxCell id="HQ6w1nF9mLyHSZceJTjx-250" value="n3" style="text;strokeColor=none;align=center;fillColor=none;html=1;verticalAlign=middle;whiteSpace=wrap;rounded=0;fontSize=17;" vertex="1" parent="1">
          <mxGeometry x="699" y="3450" width="60" height="30" as="geometry" />
        </mxCell>
        <mxCell id="HQ6w1nF9mLyHSZceJTjx-251" value="" style="endArrow=none;html=1;rounded=0;exitX=0;exitY=0.25;exitDx=0;exitDy=0;exitPerimeter=0;" edge="1" parent="1" source="HQ6w1nF9mLyHSZceJTjx-80">
          <mxGeometry width="50" height="50" relative="1" as="geometry">
            <mxPoint x="1014" y="1110" as="sourcePoint" />
            <mxPoint x="964" y="1126" as="targetPoint" />
          </mxGeometry>
        </mxCell>
        <mxCell id="HQ6w1nF9mLyHSZceJTjx-252" value="sign" style="text;strokeColor=none;align=center;fillColor=none;html=1;verticalAlign=middle;whiteSpace=wrap;rounded=0;fontSize=17;" vertex="1" parent="1">
          <mxGeometry x="973" y="1096" width="60" height="30" as="geometry" />
        </mxCell>
        <mxCell id="HQ6w1nF9mLyHSZceJTjx-253" value="" style="verticalLabelPosition=bottom;shadow=0;dashed=0;align=center;html=1;verticalAlign=top;shape=mxgraph.electrical.logic_gates.logic_gate;operation=and;negating=1;negSize=0.15;" vertex="1" parent="1">
          <mxGeometry x="1023.5" y="3520" width="100" height="60" as="geometry" />
        </mxCell>
        <mxCell id="HQ6w1nF9mLyHSZceJTjx-254" value="" style="verticalLabelPosition=bottom;shadow=0;dashed=0;align=center;html=1;verticalAlign=top;shape=mxgraph.electrical.logic_gates.logic_gate;operation=and;" vertex="1" parent="1">
          <mxGeometry x="1030" y="3637.5" width="100" height="60" as="geometry" />
        </mxCell>
        <mxCell id="HQ6w1nF9mLyHSZceJTjx-255" value="{n9,n6,n3}" style="text;strokeColor=none;align=center;fillColor=none;html=1;verticalAlign=middle;whiteSpace=wrap;rounded=0;fontSize=17;" vertex="1" parent="1">
          <mxGeometry x="952.5" y="3520" width="60" height="30" as="geometry" />
        </mxCell>
        <mxCell id="HQ6w1nF9mLyHSZceJTjx-256" value="d45_nSpecial" style="text;strokeColor=none;align=center;fillColor=none;html=1;verticalAlign=middle;whiteSpace=wrap;rounded=0;fontSize=17;" vertex="1" parent="1">
          <mxGeometry x="936.5" y="3550" width="60" height="30" as="geometry" />
        </mxCell>
        <mxCell id="HQ6w1nF9mLyHSZceJTjx-257" value="XorBus" style="text;strokeColor=none;align=center;fillColor=none;html=1;verticalAlign=middle;whiteSpace=wrap;rounded=0;fontSize=17;" vertex="1" parent="1">
          <mxGeometry x="180" y="3580" width="60" height="30" as="geometry" />
        </mxCell>
        <mxCell id="HQ6w1nF9mLyHSZceJTjx-258" value="Nand2Bus" style="text;strokeColor=none;align=center;fillColor=none;html=1;verticalAlign=middle;whiteSpace=wrap;rounded=0;fontSize=17;" vertex="1" parent="1">
          <mxGeometry x="1043.5" y="3580" width="60" height="30" as="geometry" />
        </mxCell>
        <mxCell id="HQ6w1nF9mLyHSZceJTjx-259" value="And2Bus" style="text;strokeColor=none;align=center;fillColor=none;html=1;verticalAlign=middle;whiteSpace=wrap;rounded=0;fontSize=17;" vertex="1" parent="1">
          <mxGeometry x="1050" y="3710" width="60" height="30" as="geometry" />
        </mxCell>
        <mxCell id="HQ6w1nF9mLyHSZceJTjx-262" value="IVBus" style="text;strokeColor=none;align=center;fillColor=none;html=1;verticalAlign=middle;whiteSpace=wrap;rounded=0;fontSize=17;" vertex="1" parent="1">
          <mxGeometry x="423" y="2482.5" width="60" height="30" as="geometry" />
        </mxCell>
        <mxCell id="HQ6w1nF9mLyHSZceJTjx-263" value="IVBus" style="text;strokeColor=none;align=center;fillColor=none;html=1;verticalAlign=middle;whiteSpace=wrap;rounded=0;fontSize=17;" vertex="1" parent="1">
          <mxGeometry x="463" y="930" width="60" height="30" as="geometry" />
        </mxCell>
        <mxCell id="HQ6w1nF9mLyHSZceJTjx-264" value="IVBus" style="text;strokeColor=none;align=center;fillColor=none;html=1;verticalAlign=middle;whiteSpace=wrap;rounded=0;fontSize=17;" vertex="1" parent="1">
          <mxGeometry x="280" y="150" width="60" height="30" as="geometry" />
        </mxCell>
        <mxCell id="HQ6w1nF9mLyHSZceJTjx-265" value="outTemp2[9,6,3]" style="text;strokeColor=none;align=center;fillColor=none;html=1;verticalAlign=middle;whiteSpace=wrap;rounded=0;fontSize=17;" vertex="1" parent="1">
          <mxGeometry x="1163.5" y="3535" width="60" height="30" as="geometry" />
        </mxCell>
        <mxCell id="HQ6w1nF9mLyHSZceJTjx-266" value="d45_nSpecial" style="text;strokeColor=none;align=center;fillColor=none;html=1;verticalAlign=middle;whiteSpace=wrap;rounded=0;fontSize=17;" vertex="1" parent="1">
          <mxGeometry x="943" y="3667.5" width="60" height="30" as="geometry" />
        </mxCell>
        <mxCell id="HQ6w1nF9mLyHSZceJTjx-268" value="outTemp1[14:10,8:7,5;4]" style="text;strokeColor=none;align=center;fillColor=none;html=1;verticalAlign=middle;whiteSpace=wrap;rounded=0;fontSize=17;" vertex="1" parent="1">
          <mxGeometry x="900" y="3635" width="60" height="30" as="geometry" />
        </mxCell>
        <mxCell id="HQ6w1nF9mLyHSZceJTjx-269" value="outTemp2[14:10,8:7,5;4]" style="text;strokeColor=none;align=center;fillColor=none;html=1;verticalAlign=middle;whiteSpace=wrap;rounded=0;fontSize=17;" vertex="1" parent="1">
          <mxGeometry x="1200" y="3652.5" width="60" height="30" as="geometry" />
        </mxCell>
        <mxCell id="HQ6w1nF9mLyHSZceJTjx-270" value="d45_special" style="text;strokeColor=none;align=center;fillColor=none;html=1;verticalAlign=middle;whiteSpace=wrap;rounded=0;fontSize=17;" vertex="1" parent="1">
          <mxGeometry x="897" y="3480" width="60" height="30" as="geometry" />
        </mxCell>
        <mxCell id="HQ6w1nF9mLyHSZceJTjx-271" value="" style="endArrow=none;html=1;rounded=0;" edge="1" parent="1">
          <mxGeometry width="50" height="50" relative="1" as="geometry">
            <mxPoint x="1147" y="3495" as="sourcePoint" />
            <mxPoint x="976" y="3494.55" as="targetPoint" />
          </mxGeometry>
        </mxCell>
        <mxCell id="HQ6w1nF9mLyHSZceJTjx-272" value="outTemp2[2]" style="text;strokeColor=none;align=center;fillColor=none;html=1;verticalAlign=middle;whiteSpace=wrap;rounded=0;fontSize=17;" vertex="1" parent="1">
          <mxGeometry x="1180" y="3480" width="60" height="30" as="geometry" />
        </mxCell>
        <mxCell id="HQ6w1nF9mLyHSZceJTjx-273" value="d45_nSpecial" style="text;strokeColor=none;align=center;fillColor=none;html=1;verticalAlign=middle;whiteSpace=wrap;rounded=0;fontSize=17;" vertex="1" parent="1">
          <mxGeometry x="892.5" y="3450" width="60" height="30" as="geometry" />
        </mxCell>
        <mxCell id="HQ6w1nF9mLyHSZceJTjx-274" value="" style="endArrow=none;html=1;rounded=0;" edge="1" parent="1">
          <mxGeometry width="50" height="50" relative="1" as="geometry">
            <mxPoint x="1147" y="3465" as="sourcePoint" />
            <mxPoint x="976" y="3464.55" as="targetPoint" />
          </mxGeometry>
        </mxCell>
        <mxCell id="HQ6w1nF9mLyHSZceJTjx-275" value="outTemp2[1]" style="text;strokeColor=none;align=center;fillColor=none;html=1;verticalAlign=middle;whiteSpace=wrap;rounded=0;fontSize=17;" vertex="1" parent="1">
          <mxGeometry x="1180" y="3450" width="60" height="30" as="geometry" />
        </mxCell>
        <mxCell id="HQ6w1nF9mLyHSZceJTjx-276" value="" style="verticalLabelPosition=bottom;shadow=0;dashed=0;align=center;html=1;verticalAlign=top;shape=mxgraph.electrical.logic_gates.d_type_flip-flop;fontSize=12;rounded=0;" vertex="1" parent="1">
          <mxGeometry x="1469" y="3635" width="160" height="120" as="geometry" />
        </mxCell>
        <mxCell id="HQ6w1nF9mLyHSZceJTjx-277" value="d45_valid" style="text;strokeColor=none;align=center;fillColor=none;html=1;verticalAlign=middle;whiteSpace=wrap;rounded=0;fontSize=17;" vertex="1" parent="1">
          <mxGeometry x="1400" y="3649" width="60" height="30" as="geometry" />
        </mxCell>
        <mxCell id="HQ6w1nF9mLyHSZceJTjx-278" value="clk" style="text;strokeColor=none;align=center;fillColor=none;html=1;verticalAlign=middle;whiteSpace=wrap;rounded=0;fontSize=17;" vertex="1" parent="1">
          <mxGeometry x="1419" y="3708" width="60" height="30" as="geometry" />
        </mxCell>
        <mxCell id="HQ6w1nF9mLyHSZceJTjx-279" value="o_out_valid" style="text;strokeColor=none;align=center;fillColor=none;html=1;verticalAlign=middle;whiteSpace=wrap;rounded=0;fontSize=17;" vertex="1" parent="1">
          <mxGeometry x="1650" y="3649" width="60" height="30" as="geometry" />
        </mxCell>
        <mxCell id="HQ6w1nF9mLyHSZceJTjx-280" value="" style="verticalLabelPosition=bottom;shadow=0;dashed=0;align=center;html=1;verticalAlign=top;shape=mxgraph.electrical.logic_gates.d_type_flip-flop;fontSize=12;rounded=0;" vertex="1" parent="1">
          <mxGeometry x="1469" y="3510" width="160" height="120" as="geometry" />
        </mxCell>
        <mxCell id="HQ6w1nF9mLyHSZceJTjx-282" value="clk" style="text;strokeColor=none;align=center;fillColor=none;html=1;verticalAlign=middle;whiteSpace=wrap;rounded=0;fontSize=17;" vertex="1" parent="1">
          <mxGeometry x="1419" y="3583" width="60" height="30" as="geometry" />
        </mxCell>
        <mxCell id="HQ6w1nF9mLyHSZceJTjx-284" value="outTemp2[14:1]" style="text;strokeColor=none;align=center;fillColor=none;html=1;verticalAlign=middle;whiteSpace=wrap;rounded=0;fontSize=17;" vertex="1" parent="1">
          <mxGeometry x="1380" y="3524" width="60" height="30" as="geometry" />
        </mxCell>
        <mxCell id="HQ6w1nF9mLyHSZceJTjx-285" value="o_y[14:1]" style="text;strokeColor=none;align=center;fillColor=none;html=1;verticalAlign=middle;whiteSpace=wrap;rounded=0;fontSize=17;" vertex="1" parent="1">
          <mxGeometry x="1650" y="3524" width="60" height="30" as="geometry" />
        </mxCell>
        <mxCell id="HQ6w1nF9mLyHSZceJTjx-286" value="1&#39;b1" style="text;strokeColor=none;align=center;fillColor=none;html=1;verticalAlign=middle;whiteSpace=wrap;rounded=0;fontSize=17;" vertex="1" parent="1">
          <mxGeometry x="1419" y="3450" width="60" height="30" as="geometry" />
        </mxCell>
        <mxCell id="HQ6w1nF9mLyHSZceJTjx-287" value="" style="endArrow=none;html=1;rounded=0;" edge="1" parent="1">
          <mxGeometry width="50" height="50" relative="1" as="geometry">
            <mxPoint x="1630" y="3465" as="sourcePoint" />
            <mxPoint x="1480" y="3465" as="targetPoint" />
          </mxGeometry>
        </mxCell>
        <mxCell id="HQ6w1nF9mLyHSZceJTjx-288" value="o_y[0]" style="text;strokeColor=none;align=center;fillColor=none;html=1;verticalAlign=middle;whiteSpace=wrap;rounded=0;fontSize=17;" vertex="1" parent="1">
          <mxGeometry x="1640" y="3450" width="60" height="30" as="geometry" />
        </mxCell>
        <mxCell id="HQ6w1nF9mLyHSZceJTjx-289" value="1&#39;b0" style="text;strokeColor=none;align=center;fillColor=none;html=1;verticalAlign=middle;whiteSpace=wrap;rounded=0;fontSize=17;" vertex="1" parent="1">
          <mxGeometry x="1419" y="3472.5" width="60" height="30" as="geometry" />
        </mxCell>
        <mxCell id="HQ6w1nF9mLyHSZceJTjx-290" value="" style="endArrow=none;html=1;rounded=0;" edge="1" parent="1">
          <mxGeometry width="50" height="50" relative="1" as="geometry">
            <mxPoint x="1630" y="3487.5" as="sourcePoint" />
            <mxPoint x="1480" y="3487.5" as="targetPoint" />
          </mxGeometry>
        </mxCell>
        <mxCell id="HQ6w1nF9mLyHSZceJTjx-291" value="o_y[15]" style="text;strokeColor=none;align=center;fillColor=none;html=1;verticalAlign=middle;whiteSpace=wrap;rounded=0;fontSize=17;" vertex="1" parent="1">
          <mxGeometry x="1640" y="3472.5" width="60" height="30" as="geometry" />
        </mxCell>
      </root>
    </mxGraphModel>
  </diagram>
</mxfile>
